<svg width="134" height="38" viewBox="0 0 134 38" fill="none"
	xmlns="http://www.w3.org/2000/svg">
	<path fill-rule="evenodd" clip-rule="evenodd" d="M57.5578 15.513C58.9336 15.513 59.8914 16.346 60.0633 17.6445L63.5764 17.3505C63.3553 15.856 62.6674 14.6554 61.5619 13.7733C60.4566 12.8915 59.13 12.4503 57.5578 12.4503C55.6416 12.4503 54.0695 13.0385 52.8659 14.2145C51.662 15.3906 51.048 17.0075 51.048 19.0408C51.048 21.0744 51.662 22.6669 52.8659 23.8675C54.0695 25.0435 55.6416 25.6314 57.5578 25.6314C59.13 25.6314 60.4566 25.1905 61.5619 24.3329C62.6674 23.4753 63.3306 22.2996 63.5764 20.8051L60.0881 20.4866C59.8914 21.7605 58.9581 22.5444 57.5578 22.5444C55.863 22.5444 54.6835 21.2214 54.6835 19.0408C54.6835 16.8115 55.863 15.513 57.5578 15.513ZM32.7652 3.44865C29.9347 1.34619 26.0654 0.270713 21.2806 0.0471162C20.6452 0.017483 19.9962 0.00012207 19.3285 0.00012207C18.5308 0.00012207 17.7573 0.0204762 17.0058 0.0605859C12.7026 0.28957 9.16298 1.18635 6.44698 2.86527C2.45019 5.68761 0.444409 10.5005 0.0677398 16.8803C0.0237097 17.6274 0.000488281 18.3946 0.000488281 19.1839C0.000488281 19.846 0.0182813 20.4899 0.0493436 21.1199C0.344888 27.1418 2.0699 31.6993 5.52114 34.5516C8.35174 36.6541 12.221 37.7298 17.0058 37.9531C17.6415 37.9828 18.2902 38.0001 18.9579 38.0001C19.7555 38.0001 20.5291 37.9798 21.2806 37.9397C25.5838 37.7107 29.1234 36.8139 31.8397 35.135C35.8362 32.3126 37.8423 27.4998 38.2187 21.1199C38.2627 20.3728 38.2862 19.6057 38.2862 18.8163C38.2862 18.1542 38.2681 17.5104 38.2371 16.8803C37.9415 10.8585 36.2168 6.30093 32.7652 3.44865ZM12.762 19.0001C12.762 21.3444 14.0446 23.3909 15.9518 24.4859L12.7608 29.9725C8.94675 27.782 6.38094 23.6885 6.38094 19.0001C6.38094 12.0037 12.0952 6.33236 19.143 6.33236C21.4676 6.33236 23.6474 6.94927 25.5247 8.02804L22.3334 13.5144C21.3949 12.9747 20.305 12.6664 19.143 12.6664C15.6188 12.6664 12.762 15.5019 12.762 19.0001ZM25.5238 29.9704C23.9981 30.8453 22.0469 30.3266 21.1657 28.8114C20.2908 27.3076 20.8002 25.388 22.3009 24.505C22.3208 24.4942 22.3407 24.4829 22.3597 24.4709C23.882 23.6163 25.8163 24.1389 26.6915 25.6446C27.573 27.1594 27.0504 29.0964 25.5238 29.9704ZM132.084 14.2633C130.831 13.063 129.21 12.4503 127.245 12.4503C125.279 12.4503 123.658 13.063 122.381 14.2633C121.128 15.4639 120.489 17.0566 120.489 19.0408C120.489 21.0011 121.128 22.5935 122.381 23.8184C123.658 25.019 125.279 25.6314 127.245 25.6314C129.21 25.6314 130.831 25.019 132.084 23.8184C133.361 22.5935 134 21.0011 134 19.0408C134 17.0566 133.361 15.4639 132.084 14.2633ZM129.505 21.6135C128.94 22.226 128.178 22.5444 127.245 22.5444C126.311 22.5444 125.549 22.226 124.985 21.6135C124.419 21.0011 124.125 20.1435 124.125 19.0408C124.125 17.9384 124.419 17.0808 124.985 16.4684C125.549 15.8315 126.311 15.513 127.245 15.513C128.178 15.513 128.94 15.8315 129.505 16.4684C130.07 17.0808 130.364 17.9384 130.364 19.0408C130.364 20.1435 130.07 21.0011 129.505 21.6135ZM65.891 25.362H69.4776V6.32547H65.891V25.362ZM116.379 6.39881C114.586 6.30093 113.481 8.84879 114.856 10.0739C115.667 10.8824 117.092 10.8824 117.902 10.0739C118.32 9.65757 118.541 9.14303 118.541 8.55485C118.541 7.35456 117.583 6.39881 116.379 6.39881ZM106.093 20.1435L103.121 12.6954H99.1657L104.644 25.362H107.518L112.996 12.6954H109.041L106.093 20.1435ZM114.586 25.362H118.173V12.6954H114.586V25.362ZM92.7367 12.4503C90.8205 12.4503 89.2728 13.0385 88.0692 14.239C86.8653 15.4148 86.2757 17.0075 86.2757 19.0408C86.2757 21.0499 86.8653 22.6423 88.0692 23.8429C89.2728 25.0435 90.8694 25.6314 92.8347 25.6314C94.3333 25.6314 95.6107 25.2396 96.6916 24.4799C97.7969 23.7205 98.4604 22.716 98.6814 21.5154L95.0703 21.3438C94.8001 22.275 94.0139 22.7405 92.7367 22.7405C91.1399 22.7405 90.157 21.7605 90.0835 20.1681H98.8044V18.7469C98.8044 16.7869 98.2637 15.2436 97.1584 14.1409C96.0529 13.0139 94.579 12.4503 92.7367 12.4503ZM90.0835 17.7914C90.1818 16.199 91.1643 15.2436 92.712 15.2436C94.2841 15.2436 95.1195 16.199 95.1931 17.7914H90.0835ZM78.3874 12.4503C76.4712 12.4503 74.9235 13.0385 73.7199 14.239C72.5163 15.4148 71.9267 17.0075 71.9267 19.0408C71.9267 21.0499 72.5163 22.6423 73.7199 23.8429C74.9235 25.0435 76.5204 25.6314 78.4857 25.6314C79.9843 25.6314 81.2614 25.2396 82.3423 24.4799C83.4479 23.7205 84.111 22.716 84.3324 21.5154L80.721 21.3438C80.4508 22.275 79.6649 22.7405 78.3874 22.7405C76.7906 22.7405 75.808 21.7605 75.7341 20.1681H84.4551V18.7469C84.4551 16.7869 83.9147 15.2436 82.8091 14.1409C81.7038 13.0139 80.2297 12.4503 78.3874 12.4503ZM75.7341 17.7914C75.8325 16.199 76.8153 15.2436 78.3627 15.2436C79.9351 15.2436 80.7702 16.199 80.8441 17.7914H75.7341Z" fill="#1C252B"/>
</svg>
